<svg xmlns="http://www.w3.org/2000/svg" width="32.651" height="23.639" viewBox="0 0 32.651 23.639"><defs><style>.a{fill:#eba630;stroke:#fff;stroke-width:2px;}.b{fill:#d99010;}.c{fill:#805613;}.d{fill:#f3c97f;}.e{stroke:none;}.f{fill:none;}</style></defs><g transform="translate(2 2)"><g class="a"><ellipse class="e" cx="14.325" cy="9.82" rx="14.325" ry="9.82"/><ellipse class="f" cx="14.325" cy="9.82" rx="15.325" ry="10.82"/></g><g transform="translate(1.525 1.503)"><path class="b" d="M-2837.648,165.534a5.481,5.481,0,0,1,.464,2.184c0,4.535-5.761,8.211-12.869,8.211-4.521,0-8.494-1.488-10.789-3.738,1.5,3.474,6.483,6.027,12.4,6.027,7.107,0,12.869-3.676,12.869-8.211A6.278,6.278,0,0,0-2837.648,165.534Z" transform="translate(2861.396 -161.69)"/><path class="c" d="M-2850.964,164.091c-7.145,0-12.958-3.731-12.958-8.317s5.813-8.317,12.958-8.317,12.958,3.731,12.958,8.317S-2843.818,164.091-2850.964,164.091Zm0-16.422c-7.046,0-12.779,3.636-12.779,8.1s5.732,8.1,12.779,8.1,12.779-3.636,12.779-8.1S-2843.917,147.67-2850.964,147.67Z" transform="translate(2863.922 -147.457)"/></g><path class="d" d="M3.744.013c2.026-.082,3.636.759,3.6,1.88S5.628,3.989,3.6,4.071s-3.636-.759-3.6-1.88S1.718.1,3.744.013Z" transform="matrix(0.973, -0.231, 0.231, 0.973, 5.56, 4.143)"/></g></svg>