<svg xmlns="http://www.w3.org/2000/svg" width="32.651" height="23.639" viewBox="0 0 32.651 23.639"><defs><style>.a{fill:#ccc;}.b{fill:#b9b9b9;}.c{fill:#888;}.d{fill:#ebebeb;}.e,.f{stroke:none;}.f{fill:#fff;}</style></defs><g transform="translate(2 2)"><g class="a"><path class="e" d="M 14.32538890838623 20.63948440551758 C 10.29913902282715 20.63948440551758 6.50092887878418 19.55583381652832 3.630419015884399 17.58816337585449 C 2.198988914489746 16.60695457458496 1.069968938827515 15.45595455169678 0.2747288942337036 14.16714382171631 C -0.5711210966110229 12.79631423950195 -1.000001072883606 11.33364391326904 -1.000001072883606 9.819744110107422 C -1.000001072883606 8.305844306945801 -0.5711210966110229 6.843173980712891 0.2747288942337036 5.472343921661377 C 1.069968938827515 4.183534145355225 2.198988914489746 3.032534122467041 3.630419015884399 2.051324129104614 C 6.50092887878418 0.08365411311388016 10.29913902282715 -0.9999958872795105 14.32538890838623 -0.9999958872795105 C 18.35163879394531 -0.9999958872795105 22.14984893798828 0.08365411311388016 25.02035903930664 2.051324129104614 C 26.45178985595703 3.032534122467041 27.58080863952637 4.183534145355225 28.37604904174805 5.472343921661377 C 29.22189903259277 6.843173980712891 29.65077972412109 8.305844306945801 29.65077972412109 9.819744110107422 C 29.65077972412109 11.33364391326904 29.22189903259277 12.79631423950195 28.37604904174805 14.16714382171631 C 27.58080863952637 15.45595455169678 26.45178985595703 16.60695457458496 25.02035903930664 17.58816337585449 C 22.14984893798828 19.55583381652832 18.35163879394531 20.63948440551758 14.32538890838623 20.63948440551758 Z"/><path class="f" d="M 14.32538890838623 3.814697265625e-06 C 6.413698196411133 3.814697265625e-06 -1.9073486328125e-06 4.396453857421875 -1.9073486328125e-06 9.819744110107422 C -1.9073486328125e-06 15.24303436279297 6.413698196411133 19.63948440551758 14.32538890838623 19.63948440551758 C 22.23707962036133 19.63948440551758 28.65077972412109 15.24303436279297 28.65077972412109 9.819744110107422 C 28.65077972412109 4.396453857421875 22.23707962036133 3.814697265625e-06 14.32538890838623 3.814697265625e-06 M 14.32538890838623 -1.999996185302734 C 18.55143928527832 -1.999996185302734 22.55044937133789 -0.8541355133056641 25.58575820922852 1.226503372192383 C 27.13298797607422 2.287094116210938 28.35810852050781 3.538923263549805 29.22707939147949 4.947223663330078 C 30.17177963256836 6.478254318237305 30.65077972412109 8.11760425567627 30.65077972412109 9.819744110107422 C 30.65077972412109 11.52188396453857 30.17177963256836 13.16123390197754 29.22707939147949 14.69226455688477 C 28.35810852050781 16.10056304931641 27.13298797607422 17.35239410400391 25.58575820922852 18.41298484802246 C 22.55044937133789 20.49362373352051 18.55143928527832 21.63948440551758 14.32538890838623 21.63948440551758 C 10.09933853149414 21.63948440551758 6.10032844543457 20.49362373352051 3.065019607543945 18.41298484802246 C 1.517789840698242 17.35239410400391 0.2926692962646484 16.10056304931641 -0.5763015747070313 14.69226455688477 C -1.521001815795898 13.16123390197754 -2.000001907348633 11.52188396453857 -2.000001907348633 9.819744110107422 C -2.000001907348633 8.11760425567627 -1.521001815795898 6.478254318237305 -0.5763015747070313 4.947223663330078 C 0.2926692962646484 3.538923263549805 1.517789840698242 2.287094116210938 3.065019607543945 1.226503372192383 C 6.10032844543457 -0.8541355133056641 10.09933853149414 -1.999996185302734 14.32538890838623 -1.999996185302734 Z"/></g><g transform="translate(1.525 1.503)"><path class="b" d="M-2837.648,165.534a5.481,5.481,0,0,1,.464,2.184c0,4.535-5.761,8.211-12.869,8.211-4.521,0-8.494-1.488-10.789-3.738,1.5,3.474,6.483,6.027,12.4,6.027,7.107,0,12.869-3.676,12.869-8.211A6.278,6.278,0,0,0-2837.648,165.534Z" transform="translate(2861.396 -161.69)"/><path class="c" d="M-2850.964,164.091c-7.145,0-12.958-3.731-12.958-8.317s5.813-8.317,12.958-8.317,12.958,3.731,12.958,8.317S-2843.818,164.091-2850.964,164.091Zm0-16.422c-7.046,0-12.779,3.636-12.779,8.1s5.732,8.1,12.779,8.1,12.779-3.636,12.779-8.1S-2843.917,147.67-2850.964,147.67Z" transform="translate(2863.922 -147.457)"/></g><path class="d" d="M3.744.013c2.026-.082,3.636.759,3.6,1.88S5.628,3.989,3.6,4.071s-3.636-.759-3.6-1.88S1.718.1,3.744.013Z" transform="matrix(0.973, -0.231, 0.231, 0.973, 5.56, 4.143)"/></g></svg>