<svg xmlns="http://www.w3.org/2000/svg" width="16.53" height="15.371" viewBox="0 0 16.53 15.371"><defs><style>.a{fill-rule:evenodd;}</style></defs><path class="a" d="M136.582,142.314c-.3-.667-.616-.68-.9-.691-.233-.01-.5-.01-.767-.01a1.471,1.471,0,0,0-1.067.5,4.487,4.487,0,0,0-1.4,3.338,7.786,7.786,0,0,0,1.635,4.14c.2.267,2.769,4.438,6.838,6.042,3.381,1.334,4.069,1.068,4.8,1a4.042,4.042,0,0,0,2.7-1.9,3.342,3.342,0,0,0,.234-1.9c-.1-.167-.367-.267-.767-.467s-2.368-1.169-2.735-1.3-.634-.2-.9.2-1.034,1.3-1.267,1.568-.467.3-.867.1a10.945,10.945,0,0,1-3.219-1.987,12.06,12.06,0,0,1-2.227-2.772c-.233-.4,0-.6.176-.817a12.073,12.073,0,0,0,1-1.369.738.738,0,0,0-.033-.7C137.716,145.085,136.938,143.106,136.582,142.314Zm0,0" transform="matrix(1, 0.017, -0.017, 1, -129.691, -143.903)"/></svg>