<svg xmlns="http://www.w3.org/2000/svg" width="75.048" height="39.375" viewBox="0 0 75.048 39.375"><defs><style>.a{fill:#fff;}.a,.b{stroke:#fff;}.b{fill:#ff8db0;}</style></defs><g transform="translate(0.5 0.5)"><path class="a" d="M-2798.382,103.03c-.008-.381-.034-.94-.056-1.355,0-.082-.008-.16-.012-.229l-.016-.294c-.034-.608-.07-1.1-.113-1.538q-.016-.165-.035-.32c-.036-.313-.077-.6-.125-.9-.16-.984-.15-1.292-.47-1.407,0,0-10.291,1.084-17.567,2.052s-17.187,1.075-26.918,1.828-24.644-3.656-26.827-4.409a2.365,2.365,0,0,1-1.194-.989c-.022.057-.044.114-.062.173a13.889,13.889,0,0,0-.318,1.429c-.051.291-.1.6-.142.922q-.033.241-.06.486c-.037.326-.066.657-.084.981q-.014.243-.021.479c-.008.315,0,.617.014.9a5.073,5.073,0,0,0,.1.763,1.957,1.957,0,0,0,.207.566,3.825,3.825,0,0,0,.556.7,9.425,9.425,0,0,0,1.1.942,14.074,14.074,0,0,0,1.56,1c.2.11.392.208.569.291a5.253,5.253,0,0,0,.486.2l.214.074c.494.167,1.539.5,2.991.874l.406.1q.416.1.87.212c1.379.349,2.84.632,4.353.858q.568.085,1.144.159c1.152.149,2.327.269,3.513.363.79.063,1.584.114,2.379.155s1.59.072,2.381.095q.593.017,1.183.027,1.18.021,2.336.02c1.54,0,3.039-.029,4.465-.073,2.852-.088,5.41-.24,7.41-.371.75-.049,1.422-.1,2-.134.386-.026.731-.048,1.031-.066l16.094-1.536,16.094-1.535a.6.6,0,0,0,.548-.407.665.665,0,0,0,.036-.145c0-.014,0-.023,0-.023Z" transform="translate(2872.404 -69.866)"/><path class="b" d="M-2869.448,75.006c2.183.753,17.1,5.162,26.827,4.409s19.643-.861,26.918-1.828,17.566-2.052,17.566-2.052a13.638,13.638,0,0,0,.428-1.91c.085-.525.166-1.148.221-1.858a25.84,25.84,0,0,0-.136-5.214c-.064-.506-.157-1.06-.275-1.647-.078-.391-.167-.8-.266-1.216q-.074-.313-.155-.635c-.107-.429-.222-.867-.345-1.31a79.972,79.972,0,0,0-2.6-7.765c-.3-.746-.582-1.423-.845-2a5.62,5.62,0,0,0-1.2-2.012.914.914,0,0,0-.359-.079,1.073,1.073,0,0,0-.671.255,2.014,2.014,0,0,0-.3.294,3.071,3.071,0,0,0-.378.59,4.269,4.269,0,0,0-.388,1.209,8.225,8.225,0,0,1-.343,1.427c-.051.147-.109.3-.177.457a6.7,6.7,0,0,1-.367.731,8.612,8.612,0,0,1-4.13,3.462q-.479.214-1.021.41a17.852,17.852,0,0,1-1.784.534,8.521,8.521,0,0,1-1.671.168c-.178,0-.364.005-.556,0-.577,0-1.209-.037-1.858-.1a16.435,16.435,0,0,1-2.578-.458,9.957,9.957,0,0,1-1.171-.391,6.005,6.005,0,0,1-.994-.514s.07-.578.079-1.374c0-.318,0-.671-.026-1.035-.017-.274-.045-.553-.086-.83-.205-1.383-.746-2.686-2.056-2.69a8.138,8.138,0,0,0-1.261.19c-.328.066-.682.143-1.021.221-.227.052-.448.1-.652.152-.611.146-1.069.262-1.069.262a.661.661,0,0,0-.048-.1.5.5,0,0,0-.452-.285.845.845,0,0,0-.448.183c-.135.1-.29.209-.453.331s-.334.25-.5.376l-.325.247-.417.319-.324.25h-.036a5.971,5.971,0,0,0-1.025.132,6.21,6.21,0,0,0-1.413.478,4.948,4.948,0,0,0-1.106.73,4.361,4.361,0,0,0-.933,1.157,5.61,5.61,0,0,0-2.531,1.112,2.771,2.771,0,0,0-.447.5,2.262,2.262,0,0,0-.3.621h0s-.034,0-.1,0h-.112c-.087,0-.2,0-.328.013a6.249,6.249,0,0,0-1.188.185,4.058,4.058,0,0,0-.515.173,2.864,2.864,0,0,0-.479.251,2,2,0,0,0-.4.342l-.327.367c-.406.454-.7.771-.872.959l-.175.187-.022.023s-.331.031-.785.114c-.152.027-.316.06-.487.1s-.348.085-.522.138c-.087.026-.174.054-.26.084a2.692,2.692,0,0,0-1.057.6,7.794,7.794,0,0,0-.743.9c-.033.049-.062.092-.084.129a1.515,1.515,0,0,0-.091.164l-2.225,1.246h0a2.058,2.058,0,0,0-.783-.126,1.161,1.161,0,0,0-.407.094,2,2,0,0,0-.288.156,1.9,1.9,0,0,0-.553.55,1.849,1.849,0,0,0-.159.3,1,1,0,0,0-.044.124s-.889.49-2.275,1.159c-.231.112-.476.228-.733.348s-.525.243-.8.369-.569.254-.867.383c-1.042.451-2.188.909-3.359,1.315q-.5.174-1.008.334c-.843.264-1.686.493-2.5.663-.321.067-.626.134-.92.2-.1.024-.2.048-.3.071-.184.043-.369.087-.543.131-.121.031-.231.062-.347.092-.14.037-.285.075-.418.113s-.23.068-.345.1-.237.07-.348.1-.223.074-.332.11-.2.067-.293.1-.21.078-.312.117c-.083.032-.168.063-.247.1-.1.041-.2.083-.292.124-.069.03-.139.06-.2.09-.1.044-.185.088-.273.132l-.167.085c-.087.046-.17.093-.251.14l-.135.08c-.08.049-.155.1-.228.148l-.106.074c-.073.052-.141.1-.206.157-.027.022-.055.044-.08.067-.066.056-.127.111-.184.167l-.059.059c-.058.059-.112.119-.161.179-.014.016-.027.032-.04.049-.051.064-.1.128-.141.192l-.023.037q-.066.1-.12.208l-.01.02c-.037.076-.071.152-.1.228A2.368,2.368,0,0,0-2869.448,75.006Z" transform="translate(2871.461 -49.888)"/></g></svg>