<svg xmlns="http://www.w3.org/2000/svg" width="28.195" height="24.67" viewBox="0 0 28.195 24.67"><defs><style>.a{fill:#8bc34a;}.b{fill:#fafafa;}</style></defs><g transform="translate(0 -32)"><g transform="translate(0 32)"><path class="a" d="M209.622,199.049c0-3.893-3.946-7.049-8.811-7.049S192,195.156,192,199.049s3.946,7.049,8.811,7.049a10.764,10.764,0,0,0,2.3-.273l4.749,2.035-1.642-3.283A6.641,6.641,0,0,0,209.622,199.049Z" transform="translate(-181.427 -183.189)"/><path class="a" d="M10.573,32C4.733,32,0,35.946,0,40.811a8.341,8.341,0,0,0,4.037,6.9L2.643,50.5l3.8-1.626A12,12,0,0,0,9,49.514a7.378,7.378,0,0,1-.194-1.655c0-4.858,4.742-8.811,10.573-8.811a12.789,12.789,0,0,1,1.57.107C20.024,35.082,15.733,32,10.573,32Z" transform="translate(0 -32)"/></g><g transform="translate(5.964 35.795)"><ellipse class="b" cx="1" cy="1.5" rx="1" ry="1.5" transform="translate(0.036 0.205)"/><ellipse class="b" cx="1" cy="1.5" rx="1" ry="1.5" transform="translate(7.036 0.205)"/><ellipse class="b" cx="1.5" cy="1" rx="1.5" ry="1" transform="translate(9.036 9.205)"/><circle class="b" cx="1" cy="1" r="1" transform="translate(15.036 9.205)"/></g></g></svg>