<svg xmlns="http://www.w3.org/2000/svg" width="24.881" height="24.994" viewBox="0 0 24.881 24.994"><defs><style>.a,.c{fill:#fff;}.b{fill:#64b161;}.c{fill-rule:evenodd;}</style></defs><g transform="translate(-0.718 -0.718)"><path class="a" d="M10.894,35.889l1.757-6.418a12.389,12.389,0,1,1,10.735,6.2h-.005a12.378,12.378,0,0,1-5.92-1.508Zm6.871-3.964.376.223a10.283,10.283,0,0,0,5.241,1.435h0a10.3,10.3,0,1,0-8.723-4.824l.245.39-1.04,3.8Zm0,0" transform="translate(-10.176 -10.177)"/><path class="b" d="M19.344,43.512l1.7-6.2A11.96,11.96,0,1,1,31.4,43.3H31.4a11.958,11.958,0,0,1-5.715-1.455Zm0,0" transform="translate(-18.195 -18.232)"/><g transform="translate(6.916 7.383)"><path class="c" d="M135.645,142.155c-.232-.515-.476-.526-.7-.535-.18-.008-.387-.007-.593-.007a1.138,1.138,0,0,0-.825.387,3.47,3.47,0,0,0-1.084,2.582,6.021,6.021,0,0,0,1.264,3.2A12.706,12.706,0,0,0,139,152.456c2.615,1.031,3.147.826,3.714.775a3.126,3.126,0,0,0,2.089-1.472,2.585,2.585,0,0,0,.181-1.472c-.077-.129-.284-.206-.593-.361s-1.831-.9-2.115-1.007-.49-.155-.7.155-.8,1.007-.98,1.213-.361.233-.671.078a8.464,8.464,0,0,1-2.489-1.536,9.326,9.326,0,0,1-1.722-2.144c-.18-.31,0-.462.136-.632a9.341,9.341,0,0,0,.774-1.058.57.57,0,0,0-.026-.542C136.521,144.3,135.92,142.768,135.645,142.155Zm0,0" transform="translate(-132.446 -141.613)"/></g></g></svg>